Exact Audio Copy V0.99 prebeta 3 from 28. July 2007

EAC extraction logfile from 3. September 2009, 4:52

The Beatles / Past Masters Disc 1 (2009 Stereo Remaster)

Used drive  : TSSTcorpCDDVDW TS-L633L   Adapter: 2  ID: 0

Read mode               : Secure
Utilize accurate stream : Yes
Defeat audio cache      : Yes
Make use of C2 pointers : No

Read offset correction                      : 6
Overread into Lead-In and Lead-Out          : No
Fill up missing offset samples with silence : Yes
Delete leading and trailing silent blocks   : No
Null samples used in CRC calculations       : Yes
Used interface                              : Native Win32 interface for Win NT & 2000
Gap handling                                : Appended to previous track

Used output format              : User Defined Encoder
Selected bitrate                : 128 kBit/s
Quality                         : High
Add ID3 tag                     : No
Command line compressor         : C:\Program Files\Exact Audio Copy\Flac\flac.exe
Additional command line options : -V -8 -T "artist=%a" -T "title=%t" -T "album=%g" -T "date=%y" -T "tracknumber=%n" -T "genre=%m" %s  


TOC of the extracted CD

     Track |   Start  |  Length  | Start sector | End sector 
    ---------------------------------------------------------
        1  |  0:00.00 |  2:25.67 |         0    |    10941   
        2  |  2:25.67 |  1:57.08 |     10942    |    19724   
        3  |  4:23.00 |  2:03.45 |     19725    |    28994   
        4  |  6:26.45 |  2:21.25 |     28995    |    39594   
        5  |  8:47.70 |  2:06.31 |     39595    |    49075   
        6  | 10:54.26 |  2:26.40 |     49076    |    60065   
        7  | 13:20.66 |  2:16.06 |     60066    |    70271   
        8  | 15:36.72 |  2:25.61 |     70272    |    81207   
        9  | 18:02.58 |  2:19.30 |     81208    |    91662   
       10  | 20:22.13 |  2:02.65 |     91663    |   100877   
       11  | 22:25.03 |  2:08.71 |    100878    |   110548   
       12  | 24:33.74 |  2:56.64 |    110549    |   123812   
       13  | 27:30.63 |  1:58.56 |    123813    |   132718   
       14  | 29:29.44 |  2:19.51 |    132719    |   143194   
       15  | 31:49.20 |  3:02.66 |    143195    |   156910   
       16  | 34:52.11 |  2:20.45 |    156911    |   167455   
       17  | 37:12.56 |  2:42.31 |    167456    |   179636   
       18  | 39:55.12 |  2:33.67 |    179637    |   191178   


Track  1

     Filename C:\Users\temp\Desktop\FLAC\The Beatles - 2009 - Past Masters Disc 1 (2009 Stereo Remaster) [FLAC]\01 - Love Me Do (Original Single Version).wav

     Pre-gap length  0:00:02.00

     Peak level 95.9 %
     Track quality 100.0 %
     Test CRC 305B137F
     Copy CRC 305B137F
     Track not present in AccurateRip database
     Copy OK

Track  2

     Filename C:\Users\temp\Desktop\FLAC\The Beatles - 2009 - Past Masters Disc 1 (2009 Stereo Remaster) [FLAC]\02 - From Me To You.wav

     Pre-gap length  0:00:02.76

     Peak level 95.9 %
     Track quality 100.0 %
     Test CRC 0F22C926
     Copy CRC 0F22C926
     Track not present in AccurateRip database
     Copy OK

Track  3

     Filename C:\Users\temp\Desktop\FLAC\The Beatles - 2009 - Past Masters Disc 1 (2009 Stereo Remaster) [FLAC]\03 - Thank You Girl.wav

     Pre-gap length  0:00:00.78

     Peak level 95.8 %
     Track quality 100.0 %
     Test CRC 778C220A
     Copy CRC 778C220A
     Track not present in AccurateRip database
     Copy OK

Track  4

     Filename C:\Users\temp\Desktop\FLAC\The Beatles - 2009 - Past Masters Disc 1 (2009 Stereo Remaster) [FLAC]\04 - She Loves You.wav

     Pre-gap length  0:00:01.02

     Peak level 88.6 %
     Track quality 100.0 %
     Test CRC 0D054188
     Copy CRC 0D054188
     Track not present in AccurateRip database
     Copy OK

Track  5

     Filename C:\Users\temp\Desktop\FLAC\The Beatles - 2009 - Past Masters Disc 1 (2009 Stereo Remaster) [FLAC]\05 - I'll Get You.wav

     Pre-gap length  0:00:01.44

     Peak level 95.8 %
     Track quality 100.0 %
     Test CRC BA85882F
     Copy CRC BA85882F
     Track not present in AccurateRip database
     Copy OK

Track  6

     Filename C:\Users\temp\Desktop\FLAC\The Beatles - 2009 - Past Masters Disc 1 (2009 Stereo Remaster) [FLAC]\06 - I Want To Hold Your Hand.wav

     Pre-gap length  0:00:02.18

     Peak level 95.8 %
     Track quality 100.0 %
     Test CRC F90F8292
     Copy CRC F90F8292
     Track not present in AccurateRip database
     Copy OK

Track  7

     Filename C:\Users\temp\Desktop\FLAC\The Beatles - 2009 - Past Masters Disc 1 (2009 Stereo Remaster) [FLAC]\07 - This Boy.wav

     Pre-gap length  0:00:00.68

     Peak level 95.7 %
     Track quality 100.0 %
     Test CRC 4A5738E1
     Copy CRC 4A5738E1
     Track not present in AccurateRip database
     Copy OK

Track  8

     Filename C:\Users\temp\Desktop\FLAC\The Beatles - 2009 - Past Masters Disc 1 (2009 Stereo Remaster) [FLAC]\08 - Komm, Gib Mir Deine Hand.wav

     Pre-gap length  0:00:00.44

     Peak level 95.8 %
     Track quality 100.0 %
     Test CRC 05757225
     Copy CRC 05757225
     Track not present in AccurateRip database
     Copy OK

Track  9

     Filename C:\Users\temp\Desktop\FLAC\The Beatles - 2009 - Past Masters Disc 1 (2009 Stereo Remaster) [FLAC]\09 - Sie Liebt Dich.wav

     Pre-gap length  0:00:00.97

     Peak level 96.1 %
     Track quality 100.0 %
     Test CRC 8F96EC99
     Copy CRC 8F96EC99
     Track not present in AccurateRip database
     Copy OK

Track 10

     Filename C:\Users\temp\Desktop\FLAC\The Beatles - 2009 - Past Masters Disc 1 (2009 Stereo Remaster) [FLAC]\10 - Long Tall Sally.wav

     Pre-gap length  0:00:01.08

     Peak level 95.8 %
     Track quality 99.9 %
     Test CRC EBF1057A
     Copy CRC EBF1057A
     Track not present in AccurateRip database
     Copy OK

Track 11

     Filename C:\Users\temp\Desktop\FLAC\The Beatles - 2009 - Past Masters Disc 1 (2009 Stereo Remaster) [FLAC]\11 - I Call Your Name.wav

     Pre-gap length  0:00:01.49

     Peak level 95.8 %
     Track quality 100.0 %
     Test CRC 57692585
     Copy CRC 57692585
     Track not present in AccurateRip database
     Copy OK

Track 12

     Filename C:\Users\temp\Desktop\FLAC\The Beatles - 2009 - Past Masters Disc 1 (2009 Stereo Remaster) [FLAC]\12 - Slow Down.wav

     Pre-gap length  0:00:01.08

     Peak level 95.8 %
     Track quality 100.0 %
     Test CRC A4CB8369
     Copy CRC A4CB8369
     Track not present in AccurateRip database
     Copy OK

Track 13

     Filename C:\Users\temp\Desktop\FLAC\The Beatles - 2009 - Past Masters Disc 1 (2009 Stereo Remaster) [FLAC]\13 - Matchbox.wav

     Pre-gap length  0:00:01.76

     Peak level 95.8 %
     Track quality 100.0 %
     Test CRC AB67B179
     Copy CRC AB67B179
     Track not present in AccurateRip database
     Copy OK

Track 14

     Filename C:\Users\temp\Desktop\FLAC\The Beatles - 2009 - Past Masters Disc 1 (2009 Stereo Remaster) [FLAC]\14 - I Feel Fine.wav

     Pre-gap length  0:00:01.64

     Peak level 95.8 %
     Track quality 100.0 %
     Test CRC 6182303F
     Copy CRC 6182303F
     Track not present in AccurateRip database
     Copy OK

Track 15

     Filename C:\Users\temp\Desktop\FLAC\The Beatles - 2009 - Past Masters Disc 1 (2009 Stereo Remaster) [FLAC]\15 - She's A Woman.wav

     Pre-gap length  0:00:00.62

     Peak level 96.6 %
     Track quality 100.0 %
     Test CRC D533E0C0
     Copy CRC D533E0C0
     Track not present in AccurateRip database
     Copy OK

Track 16

     Filename C:\Users\temp\Desktop\FLAC\The Beatles - 2009 - Past Masters Disc 1 (2009 Stereo Remaster) [FLAC]\16 - Bad Boy.wav

     Pre-gap length  0:00:00.97

     Peak level 95.8 %
     Track quality 100.0 %
     Test CRC 091A5E7F
     Copy CRC 091A5E7F
     Track not present in AccurateRip database
     Copy OK

Track 17

     Filename C:\Users\temp\Desktop\FLAC\The Beatles - 2009 - Past Masters Disc 1 (2009 Stereo Remaster) [FLAC]\17 - Yes It Is.wav

     Pre-gap length  0:00:01.49

     Peak level 95.8 %
     Track quality 100.0 %
     Test CRC 18286CCD
     Copy CRC 18286CCD
     Track not present in AccurateRip database
     Copy OK

Track 18

     Filename C:\Users\temp\Desktop\FLAC\The Beatles - 2009 - Past Masters Disc 1 (2009 Stereo Remaster) [FLAC]\18 - I'm Down.wav

     Pre-gap length  0:00:01.46

     Peak level 96.8 %
     Track quality 100.0 %
     Test CRC 2CE7D808
     Copy CRC 2CE7D808
     Track not present in AccurateRip database
     Copy OK


None of the tracks are present in the AccurateRip database

No errors occurred

End of status report
